PathFileType	4	(X/Y/Z)	0_coords_data.trc
DataRate	CameraRate	NumFrames	NumMarkers	Units	OrigDataRate	OrigDataStartFrame	OrigNumFrames
30.0	30.0	7	21	m	30.0	50	59
Frame#	Time	THUMB_TIP	THUMB_IP	THUMB_MCP	THUMB_CMC	INDEX_TIP	INDEX_DIP	INDEX_PIP	INDEX_MCP	MIDDLE_TIP	MIDDLE_DIP	MIDDLE_PIP	MIDDLE_MCP	RING_TIP	RING_DIP	RING_PIP	RING_MCP	PINKY_TIP	PINKY_DIP	PINKY_PIP	PINKY_MCP	WRIST
X1	Y1	Z1	X2	Y2	Z2	X3	Y3	Z3	X4	Y4	Z4	X5	Y5	Z5	X6	Y6	Z6	X7	Y7	Z7	X8	Y8	Z8	X9	Y9	Z9	X10	Y10	Z10	X11	Y11	Z11	X12	Y12	Z12	X13	Y13	Z13	X14	Y14	Z14	X15	Y15	Z15	X16	Y16	Z16	X17	Y17	Z17	X18	Y18	Z18	X19	Y19	Z19	X20	Y20	Z20	X21	Y21	Z21
49	1.6333333333333333	0.08122470092773437	-0.046884300231933594	0.9859000244140625	0.06313449859619141	-0.025077899932861327	0.9920150146484376	0.046638401031494144	-0.01006820011138916	1.0161900024414063	0.02012689971923828	0.014138999938964844	1.0270899658203125	0.04568259811401367	-0.059461700439453126	0.9079539794921875	0.03848799896240234	-0.05390299987792969	0.931052978515625	0.030736700057983398	-0.04778919982910156	0.9538250122070312	0.015281700134277343	-0.03813610076904297	0.9922890014648438	0.020697099685668945	-0.044389301300048825	0.883260009765625	0.015267399787902832	-0.03963230133056641	0.9079409790039062	0.007630209922790527	-0.03523699951171875	0.936197998046875	-0.003819999933242798	-0.02549930000305176	0.978551025390625	-0.000947139978408813	-0.020977399826049806	0.87627099609375	-0.006127049922943115	-0.017909500122070314	0.9015089721679688	-0.011898099899291992	-0.01582040023803711	0.9295280151367188	-0.014586199760437011	-0.0061083297729492185	0.9689550170898438	-0.021135700225830077	0.01595919990539551	0.892239990234375	-0.0226072998046875	0.016063400268554687	0.9142360229492188	-0.024588600158691406	0.01488029956817627	0.9352310180664063	-0.02408169937133789	0.015480899810791015	0.96747802734375	-0.019061800003051757	0.02086949920654297	1.0506199951171875
50	1.6666666666666667	0.0754906005859375	-0.05359349822998047	0.9864819946289063	0.05944419860839844	-0.030425500869750977	0.993052001953125	0.04350870132446289	-0.01523960018157959	1.017219970703125	0.018890899658203127	0.011188300132751464	1.02747998046875	0.04102050018310547	-0.059960601806640625	0.9060590209960937	0.03379759979248047	-0.05451449966430664	0.9287830200195313	0.025974899291992187	-0.04844699859619141	0.9517440185546875	0.010047200202941895	-0.03876499938964844	0.9904630126953125	0.019961700439453126	-0.04035010147094727	0.8813839721679687	0.014146499633789063	-0.03613410186767578	0.9060159912109375	0.005741819858551025	-0.03199970054626465	0.9346409912109375	-0.006604690074920655	-0.02342849922180176	0.9757899780273438	0.001292440056800842	-0.014255299568176269	0.8745330200195313	-0.004529600143432617	-0.011886799812316894	0.899656982421875	-0.011536199569702149	-0.01048330020904541	0.9277839965820313	-0.014730400085449218	-0.0026774098873138417	0.9670560302734375	-0.015563799858093261	0.024131099700927736	0.8915239868164062	-0.018195600509643556	0.023180200576782228	0.9132830200195312	-0.02130929946899414	0.021137800216674805	0.934302001953125	-0.021372100830078126	0.02003070068359375	0.9661229858398438	-0.020333799362182617	0.020637199401855467	1.05102001953125
51	1.7	0.06848970031738282	-0.060494598388671876	0.9859760131835937	0.05424290084838867	-0.03628099822998047	0.9935399780273437	0.039277301788330075	-0.020442399978637695	1.0185599975585937	0.017048099517822265	0.007630179882049561	1.0285699462890625	0.03616569900512695	-0.05972320175170898	0.9039650268554688	0.02879990005493164	-0.05448360061645508	0.9265679931640625	0.020897600173950197	-0.04862189865112305	0.9495659790039063	0.005352570056915283	-0.038655899047851563	0.9872589721679688	0.018620800018310547	-0.03642699813842774	0.879260986328125	0.01256980037689209	-0.032638599395751956	0.9041939697265625	0.003733969926834106	-0.028779800415039063	0.9328400268554687	-0.009339920043945312	-0.021202999114990233	0.9728599853515625	0.0040669598579406736	-0.007291709899902344	0.873197998046875	-0.002210890054702759	-0.005595210075378418	0.8981680297851562	-0.010012800216674805	-0.004720260143280029	0.9264920043945313	-0.014472100257873535	0.0006723840236663811	0.9656069946289062	-0.00840487003326416	0.03210039901733398	0.891969970703125	-0.012239000320434571	0.030111499786376953	0.9133590087890625	-0.016377799987792967	0.02726390075683594	0.9338740234375	-0.018365400314331055	0.02405340003967285	0.9652490234375	-0.02144879913330078	0.01971080017089844	1.0512900390625
52	1.7333333333333334	0.06168989944458008	-0.06564099884033203	0.985291015625	0.04990169906616211	-0.040565799713134766	0.9930469970703125	0.035459098815917967	-0.024862699508666992	1.0186599731445312	0.015544699668884278	0.005067220211029053	1.02927001953125	0.030411500930786133	-0.05955680084228516	0.9016060180664063	0.023513999938964844	-0.054327201843261716	0.9242780151367187	0.015992199897766114	-0.04861429977416992	0.94739599609375	0.00011908700317144301	-0.03859999847412109	0.985302978515625	0.016803199768066407	-0.032834598541259766	0.8777210083007813	0.010722599983215331	-0.029455299377441405	0.9029329833984375	0.001765179991722107	-0.025993799209594725	0.9315540161132813	-0.011773500442504883	-0.01918400001525879	0.9715640258789062	0.005945320129394531	-0.0023511099815368653	0.8726740112304687	-0.000663565993309021	-0.00100773000717163	0.8975969848632812	-0.009196880340576172	-0.0006131770014762871	0.9257449951171876	-0.014455699920654297	0.0032459800243377682	0.965072998046875	-0.0028166799545288083	0.036992900848388674	0.8930349731445313	-0.00766825008392334	0.03449480056762695	0.9141170043945313	-0.012760499954223632	0.031214300155639647	0.9342760009765625	-0.016230899810791014	0.026813199996948242	0.9654739990234374	-0.022890499114990234	0.019787500381469727	1.0516300048828124
53	1.7666666666666666	0.054488601684570315	-0.07212059783935547	0.9861900024414062	0.044712699890136716	-0.04615069961547852	0.994302001953125	0.030390600204467773	-0.029992700576782227	1.0199500122070313	0.013255599975585938	0.001537870049476623	1.0309599609375	0.027426599502563476	-0.059608699798583985	0.9006389770507812	0.0200049991607666	-0.054409999847412106	0.9232479858398438	0.012086000442504883	-0.048683300018310546	0.946333984375	-0.004504039764404297	-0.03850859832763672	0.9834920043945312	0.01780590057373047	-0.03103230094909668	0.8773829956054687	0.011147100448608399	-0.027832000732421876	0.9025360107421875	0.001325690031051635	-0.024249700546264647	0.93118701171875	-0.013170700073242187	-0.017629100799560548	0.9705759887695312	0.010239700317382812	0.000438962996006011	0.873083984375	0.002621299982070923	0.0017673100233078002	0.8977680053710938	-0.007144169807434082	0.0021893799304962156	0.9256840209960937	-0.014095000267028809	0.004940489768981934	0.9651530151367187	0.004642590045928955	0.039887699127197265	0.894708984375	-0.001815559983253479	0.03721390151977539	0.9153109741210937	-0.00843568992614746	0.03384339904785156	0.9349959716796875	-0.013519399642944336	0.02884510040283203	0.9659619750976562	-0.024178300857543945	0.018857200622558593	1.0529300537109374
54	1.8	0.04506230163574219	-0.07851480102539063	0.985822021484375	0.03813690185546875	-0.05187730026245117	0.9945579833984375	0.024623899459838866	-0.03541910171508789	1.0203599853515626	0.010465399742126465	-0.0024453198909759524	1.032489990234375	0.02443619918823242	-0.059486698150634766	0.9000339965820312	0.016503900527954102	-0.054335098266601566	0.9225789794921875	0.008152230262756348	-0.048627601623535154	0.9455700073242187	-0.008823789596557618	-0.038233001708984374	0.9820150146484375	0.01916990089416504	-0.029363000869750976	0.8776199951171875	0.011726699829101562	-0.026326700210571288	0.9026959838867188	0.0008279590010643001	-0.02275779914855957	0.9311690063476562	-0.015223299980163574	-0.016176700592041016	0.9702050170898437	0.015420299530029297	0.0028518400192260743	0.8742139892578125	0.006761789798736572	0.004221630096435547	0.8988079833984375	-0.004296579837799072	0.004766300201416016	0.92639501953125	-0.012895600318908691	0.0066399497985839846	0.9659199829101562	0.013607399940490723	0.04162540054321289	0.8972210083007812	0.0057062702178955075	0.039008399963378904	0.9173309936523437	-0.002384759902954101	0.03570330047607422	0.9366630249023438	-0.009908610343933106	0.030267200469970702	0.9673200073242187	-0.025337799072265625	0.01835009956359863	1.0531199951171875
55	1.8333333333333333	0.03604079818725586	-0.0838469009399414	0.98522802734375	0.03154660034179688	-0.05700790023803711	0.9943759765625	0.018976600646972656	-0.040314498901367186	1.020510009765625	0.007992219924926759	-0.006242869853973388	1.0333599853515625	0.020998199462890624	-0.0590344009399414	0.8992470092773438	0.012803899765014648	-0.05395750045776367	0.9216320190429688	0.004306340217590332	-0.04816740036010742	0.9447470092773438	-0.012380800247192382	-0.03779449844360352	0.9809760131835937	0.019558000564575195	-0.028028600692749022	0.8776749877929687	0.0114443998336792	-0.024998300552368163	0.9028209838867187	7.4351601302623e-05	-0.02141830062866211	0.9313250122070312	-0.016527099609375	-0.014886199951171875	0.9700009765625	0.018683099746704103	0.0047414197921752926	0.8754249877929687	0.009433670043945313	0.006054299831390381	0.8997249755859374	-0.002560139894485473	0.006665929794311524	0.927072021484375	-0.011852399826049805	0.007813529968261719	0.9667960205078125	0.020606100082397463	0.042550498962402344	0.899843994140625	0.011638500213623048	0.04003310012817383	0.9196170043945312	0.002454669952392578	0.03672380065917969	0.9386160278320312	-0.006798200130462647	0.030883100509643553	0.9689940185546875	-0.025979400634765625	0.017611400604248047	1.0541700439453126
